:SAMPLES-PER-SECOND 30
:FULLY-SPECIFIED
:DEGREES
258
root  0.523986 18.2982 4.53538 60.8223 -4.50021 -8.55675
RightUpLeg  -71.0734 1.56198 16.3444
RightLeg  114.37 25.5068 -18.4986
RightFoot  -10.1561 0.15697 -4.68289
RightToes  5.82077e-011 -3.18055e-015 -2.98177e-016
Spine  32.0672 2.77661 9.6758
Spine1  -9.93678 5.72711 -4.6004
HEad  -30.7408 -3.49866 -1.56234
LeftShoulder1  -3.88251e-019 9.70628e-020 -3.87848e-018
LeftArm  -2.57714 -25.4977 -68.4689
LeftForeArm  12.4632 -6.36442 -8.36046
LeftHand  -10.5956 -10.2681 70.6082
RightShoulder  6.31685 11.0184 28.3245
RightArm  1.45439 -4.45052 51.8289
RightForeArm  27.3271 8.79363 -2.66564
RightHand  -11.9103 10.4441 -74.3975
LeftUpLeg  -33.2799 9.60812 -7.44754
LeftLeg  77.937 -11.0894 17.7679
LeftFoot  1.77834 1.10123 -8.51124
LeftToes  9.37148e-011 4.50685e-012 -4.11107e-011
259
root  0.244467 18.4471 5.20664 60.748 -4.94962 -6.80366
RightUpLeg  -69.0912 0.00970512 15.6914
RightLeg  112.378 25.3894 -19.641
RightFoot  -11.1106 0.073685 -2.29683
RightToes  5.82077e-011 -3.18055e-015 -2.98177e-016
Spine  30.9692 3.15633 5.15051
Spine1  -9.59206 4.72756 -3.12282
HEad  -30.7294 -4.02837 -2.13998
LeftShoulder1  -3.88251e-019 9.70628e-020 -3.87848e-018
LeftArm  -2.73405 -25.7463 -69.495
LeftForeArm  14.9983 -3.44249 -8.76758
LeftHand  -10.9963 -10.5965 71.4619
RightShoulder  6.14117 10.9623 27.5181
RightArm  2.6045 -8.04892 52.3125
RightForeArm  25.9175 11.2618 -2.6434
RightHand  -9.66888 9.54218 -66.3819
LeftUpLeg  -35.5031 9.48943 -7.86751
LeftLeg  80.048 -11.9258 15.4188
LeftFoot  8.00946 0.966476 -5.05549
LeftToes  9.37148e-011 4.50685e-012 -4.11107e-011
260
root  -0.0537338 18.7599 5.77354 59.0582 -3.47207 -4.70881
RightUpLeg  -65.1434 -2.35791 15.9914
RightLeg  109.476 24.7445 -20.5974
RightFoot  -11.5037 0.0545987 -1.42861
RightToes  5.82077e-011 -3.18055e-015 -2.98177e-016
Spine  32.2832 2.32046 2.53798
Spine1  -10.2028 3.05325 -1.69619
HEad  -31.5019 -4.41158 -1.87761
LeftShoulder1  -3.88251e-019 9.70628e-020 -3.87848e-018
LeftArm  -3.91489 -24.7684 -69.8224
LeftForeArm  18.4755 -2.35962 -8.30988
LeftHand  -11.5324 -11.0487 72.5071
RightShoulder  6.10923 10.914 27.4417
RightArm  7.5316 -13.2634 52.6505
RightForeArm  17.9938 17.1532 -6.44919
RightHand  -8.63027 9.19727 -61.7405
LeftUpLeg  -37.142 8.6895 -6.56874
LeftLeg  83.0944 -12.7498 14.6062
LeftFoot  10.461 0.479786 -2.11556
LeftToes  9.37148e-011 4.50685e-012 -4.11107e-011
261
root  -0.271547 19.0187 6.29839 58.2548 -2.37302 -2.31989
RightUpLeg  -62.3727 -4.49494 15.0027
RightLeg  107.423 23.6748 -20.0857
RightFoot  -11.3337 0.0686177 -2.18888
RightToes  5.82077e-011 -3.18055e-015 -2.98177e-016
Spine  33.5173 1.23848 0.628303
Spine1  -11.3359 1.34311 -1.7134
HEad  -32.889 -5.14222 -1.20529
LeftShoulder1  -3.88251e-019 9.70628e-020 -3.87848e-018
LeftArm  -4.50981 -22.8437 -69.6174
LeftForeArm  21.3255 -4.08008 -7.63577
LeftHand  -11.8774 -11.4216 72.8645
RightShoulder  6.32699 10.883 28.6373
RightArm  14.4172 -17.118 51.8675
RightForeArm  8.39272 23.5296 -13.1764
RightHand  -9.03385 9.73574 -62.1515
LeftUpLeg  -40.0741 7.7646 -6.414
LeftLeg  86.5661 -13.6373 15.9962
LeftFoot  8.99286 0.306108 -1.45832
LeftToes  9.37148e-011 4.50685e-012 -4.11107e-011
262
root  -0.410766 19.2031 6.8288 57.6167 -2.24886 0.644934
RightUpLeg  -59.9358 -6.759 12.2617
RightLeg  106.627 22.4333 -18.0069
RightFoot  -11.7945 0.0688926 -2.71187
RightToes  5.82077e-011 -3.18055e-015 -2.98177e-016
Spine  34.7363 0.373322 -2.06482
Spine1  -12.1552 -0.368335 -1.84019
HEad  -34.047 -5.90097 -0.651589
LeftShoulder1  -3.88251e-019 9.70628e-020 -3.87848e-018
LeftArm  -4.12298 -21.282 -69.1968
LeftForeArm  22.4523 -6.32936 -7.40881
LeftHand  -11.7951 -11.3778 72.6277
RightShoulder  6.48966 10.8368 29.573
RightArm  12.5469 -17.6405 50.6921
RightForeArm  9.68683 30.1561 -16.7045
RightHand  -9.67285 10.2961 -63.8328
LeftUpLeg  -43.5613 6.01358 -7.7317
LeftLeg  90.8923 -14.9501 17.4945
LeftFoot  6.06503 0.426591 -2.4346
LeftToes  9.37148e-011 4.50685e-012 -4.11107e-011
263
root  -0.545147 19.3512 7.32662 55.9967 -2.65764 3.48471
RightUpLeg  -56.483 -8.8619 8.79879
RightLeg  106.296 21.2349 -15.4231
RightFoot  -12.8118 0.0465257 -2.29607
RightToes  5.82077e-011 -3.18055e-015 -2.98177e-016
Spine  36.9414 0.182816 -5.61444
Spine1  -12.9304 -1.79153 -1.00361
HEad  -34.3845 -6.5325 -0.370072
LeftShoulder1  -3.88251e-019 9.70628e-020 -3.87848e-018
LeftArm  -4.03194 -20.5438 -69.1777
LeftForeArm  23.3192 -6.6678 -7.45538
LeftHand  -11.6383 -11.0833 72.8904
RightShoulder  6.39983 10.7846 29.208
RightArm  10.6441 -15.4895 50.6289
RightForeArm  10.0978 35.0958 -19.7941
RightHand  -9.55794 10.1952 -63.5319
LeftUpLeg  -46.6414 3.4835 -9.20735
LeftLeg  96.8598 -16.5044 16.6322
LeftFoot  3.52813 0.386608 -2.56049
LeftToes  9.37148e-011 4.50685e-012 -4.11107e-011
264
root  -0.681183 19.4755 7.77879 53.1428 -3.24792 5.11884
RightUpLeg  -51.6817 -9.87885 5.67509
RightLeg  105.762 20.192 -13.1371
RightFoot  -13.3942 0.0368362 -2.21027
RightToes  5.82077e-011 -3.18055e-015 -2.98177e-016
Spine  40.3266 0.774487 -8.47591
Spine1  -14.0096 -2.40218 -0.337631
HEad  -34.2296 -7.45444 -0.336764
LeftShoulder1  -3.88251e-019 9.70628e-020 -3.87848e-018
LeftArm  -4.41122 -20.0605 -69.9094
LeftForeArm  25.0454 -5.65194 -7.40247
LeftHand  -11.7693 -11.0311 73.6862
RightShoulder  6.15648 10.705 28.0883
RightArm  8.03425 -11.5573 51.0722
RightForeArm  7.78203 38.3342 -21.9707
RightHand  -9.04868 9.81657 -61.9864
LeftUpLeg  -48.7736 1.45466 -9.94496
LeftLeg  104.09 -17.6229 13.7827
LeftFoot  1.15398 0.0914069 -0.674492
LeftToes  9.37148e-011 4.50685e-012 -4.11107e-011
265
root  -0.752692 19.5579 8.2177 49.9441 -4.31386 5.65909
RightUpLeg  -46.5936 -9.55512 2.75984
RightLeg  105.136 19.2979 -11.0778
RightFoot  -13.5192 0.0329586 -2.96199
RightToes  5.82077e-011 -3.18055e-015 -2.98177e-016
Spine  43.8222 1.76631 -10.0457
Spine1  -14.9872 -2.24625 -1.15345
HEad  -34.178 -8.77922 -0.465173
LeftShoulder1  -3.88251e-019 9.70628e-020 -3.87848e-018
LeftArm  -4.23286 -19.5254 -71.0667
LeftForeArm  26.8085 -5.10924 -7.21545
LeftHand  -12.1187 -11.3259 74.2997
RightShoulder  5.88076 10.531 26.957
RightArm  5.48067 -5.92489 51.3225
RightForeArm  2.99672 39.7589 -22.8181
RightHand  -8.4856 9.37251 -60.2296
LeftUpLeg  -50.4803 0.636812 -10.7869
LeftLeg  111.095 -18.4559 11.7031
LeftFoot  -1.76516 -0.154723 1.51945
LeftToes  9.37148e-011 4.50685e-012 -4.11107e-011
